HIERARCHY
ROOT Hips
{
    OFFSET 0.000000 0.000000 0.000000
    CHANNELS 6 Xposition Yposition Zposition Zrotation Xrotation Yrotation
    JOINT Spine
    {
        OFFSET -0.000000 6.925600 0.000000
        CHANNELS 3 Zrotation Xrotation Yrotation
        JOINT Spine1
        {
            OFFSET -0.000000 16.343796 0.000000
            CHANNELS 3 Zrotation Xrotation Yrotation
            JOINT Neck
            {
                OFFSET -0.000000 18.032967 0.000000
                CHANNELS 3 Zrotation Xrotation Yrotation
                JOINT Head
                {
                    OFFSET -0.000000 13.091072 1.689171
                    CHANNELS 3 Zrotation Xrotation Yrotation
                    End Site
                    {
                        OFFSET -0.000000 16.891708 0.000000
                    }
                }
            }
            JOINT LeftShoulder
            {
                OFFSET 3.336773 14.146137 -0.012206
                CHANNELS 3 Zrotation Xrotation Yrotation
                JOINT LeftArm
                {
                    OFFSET 11.765518 0.000000 0.000000
                    CHANNELS 3 Zrotation Xrotation Yrotation
                    JOINT LeftForeArm
                    {
                        OFFSET 25.163450 0.000000 0.000000
                        CHANNELS 3 Zrotation Xrotation Yrotation
                        JOINT LeftHand
                        {
                            OFFSET 21.783554 0.000000 0.000000
                            CHANNELS 3 Zrotation Xrotation Yrotation
                            End Site
                            {
                                OFFSET 12.668781 0.000000 0.000000
                            }
                        }
                    }
                }
            }
            JOINT RightShoulder
            {
                OFFSET -3.409204 14.146137 -0.012206
                CHANNELS 3 Zrotation Xrotation Yrotation
                JOINT RightArm
                {
                    OFFSET -11.765518 0.000000 0.000000
                    CHANNELS 3 Zrotation Xrotation Yrotation
                    JOINT RightForeArm
                    {
                        OFFSET -25.163450 0.000000 0.000000
                        CHANNELS 3 Zrotation Xrotation Yrotation
                        JOINT RightHand
                        {
                            OFFSET -21.783554 0.000000 0.000000
                            CHANNELS 3 Zrotation Xrotation Yrotation
                            End Site
                            {
                                OFFSET -12.668781 0.000000 0.000000
                            }
                        }
                    }
                }
            }
        }
    }
    JOINT LeftUpLeg
    {
        OFFSET 8.445854 0.000000 0.000000
        CHANNELS 3 Zrotation Xrotation Yrotation
        JOINT LeftLeg
        {
            OFFSET -0.000000 -40.674755 0.000000
            CHANNELS 3 Zrotation Xrotation Yrotation
            JOINT LeftFoot
            {
                OFFSET -0.000000 -37.111794 0.000000
                CHANNELS 3 Zrotation Xrotation Yrotation
                JOINT LeftToeBase
                {
                    OFFSET -0.000000 -5.489805 12.668781
                    CHANNELS 3 Zrotation Xrotation Yrotation
                    End Site
                    {
                        OFFSET -0.000000 0.000000 3.378341
                    }
                }
            }
        }
    }
    JOINT RightUpLeg
    {
        OFFSET -8.445854 0.000000 0.000000
        CHANNELS 3 Zrotation Xrotation Yrotation
        JOINT RightLeg
        {
            OFFSET -0.000000 -40.674755 0.000000
            CHANNELS 3 Zrotation Xrotation Yrotation
            JOINT RightFoot
            {
                OFFSET -0.000000 -37.111794 0.000000
                CHANNELS 3 Zrotation Xrotation Yrotation
                JOINT RightToeBase
                {
                    OFFSET -0.000000 -5.489805 12.668781
                    CHANNELS 3 Zrotation Xrotation Yrotation
                    End Site
                    {
                        OFFSET -0.000000 0.000000 3.378341
                    }
                }
            }
        }
    }
}
MOTION
Frames:    14
Frame Time:    0.008333
96.848312    83.085426    79.207626    -3.875244    0.508612    -101.983078    0.274003    0.674469    0.826579    -2.760724    9.121579    0.497375    -6.900770    6.866560    28.406088    3.266626    -12.002543    27.964033    -1.013456    9.156644    11.124734    -52.732075    40.463047    -26.576319    4.943720    3.365156    -23.084274    0.217694    4.364337    -4.629497    -3.529417    7.723351    -3.691063    48.689861    38.440659    31.132496    -1.647303    -2.722462    25.772823    -11.191252    -3.010630    6.783522    8.177486    -4.838725    -0.779642    -5.426864    27.355843    18.910975    -9.893162    -11.367739    17.808065    -2.451698    -1.884177    3.013200    1.283995    3.966014    5.952197    -7.369325    9.306528    -0.460512    7.050598    -13.214873    3.597328    -3.037319    3.145807    3.417791    
96.848381    83.056625    79.228302    -3.723417    0.567909    -101.316734    0.299308    0.356132    0.632817    -2.485797    9.285892    0.414243    -6.937774    6.803246    28.446060    3.243355    -12.169828    28.007256    -1.058262    9.139647    11.160311    -53.311386    39.801411    -26.371544    4.814194    3.682480    -22.327156    0.408355    4.612657    -5.044953    -3.496980    7.712205    -3.732901    48.897713    38.380463    30.899736    -2.417319    -1.929814    25.624771    -10.052113    -1.869454    5.560811    8.238267    -4.630232    3.980380    -2.925397    26.579468    13.498286    -7.387193    -10.686316    17.370855    -2.517118    -2.496779    1.804464    1.165388    3.806823    7.485415    -6.493018    9.687387    -2.654833    6.757795    -13.317510    3.563543    -3.017291    3.138438    3.374729    
96.836250    83.028290    79.253433    -3.562863    0.602131    -100.639702    0.270139    0.024705    0.437111    -2.177644    9.427310    0.326149    -6.992436    6.706041    28.465893    3.258327    -12.246679    28.025307    -1.096994    9.099224    11.183631    -53.847084    39.213547    -26.187326    4.635650    4.061119    -21.570042    1.099514    4.892236    -5.191948    -3.484544    7.739348    -3.745109    49.509068    37.968830    30.317814    -2.410666    -1.563721    25.703974    -10.599220    -1.552630    5.805223    8.166436    -4.312277    4.379057    -2.393051    25.328552    13.117901    -7.880425    -11.015911    16.932102    -2.018787    -2.025093    1.371463    1.239798    3.826456    8.128383    -6.259771    9.613090    -3.976686    6.733472    -13.271474    3.542645    -3.007861    3.161994    3.308541    
96.830620    83.004318    79.299271    -3.447026    0.681047    -99.940254    0.289542    0.025267    0.239593    -1.863913    9.170156    0.230685    -6.874661    6.716201    28.433014    2.985042    -12.200646    28.014133    -1.120518    9.116451    11.258688    -54.269398    38.865929    -26.018129    4.327308    3.833233    -20.969152    0.789534    4.596037    -5.262386    -3.459844    7.787745    -3.829147    49.395561    38.382534    30.361551    -2.296548    -1.800708    25.239370    -10.349821    -1.787456    5.526947    8.157458    -4.025736    4.644867    -1.774740    24.364376    12.496846    -9.386192    -10.808712    16.677801    -2.146771    -2.100808    1.585869    1.402030    3.807735    7.847395    -6.324183    9.628628    -4.328618    6.820500    -13.320022    3.588055    -2.988199    3.210104    3.172401    
96.956848    82.976082    79.274246    -3.002852    0.850266    -99.417076    0.264494    -0.159889    0.182446    -1.417181    8.874002    0.171880    -6.986504    6.594034    28.456188    3.109935    -12.167080    28.022070    -1.129971    9.057707    11.210094    -54.324318    38.184109    -25.862085    3.308618    3.692590    -20.739492    0.933829    4.255818    -5.022949    -3.491862    7.861596    -3.762443    50.153931    37.971195    29.744871    -2.245855    -1.568430    25.228758    -10.361823    -1.553144    5.371466    8.353939    -4.233276    5.156435    -1.439168    23.649595    11.649060    -9.010206    -10.823668    16.563807    -2.702704    -2.358609    2.703393    1.849924    3.262792    7.734451    -6.482181    9.883634    -4.707320    6.841995    -13.366020    3.483963    -2.968206    3.163217    3.196312    
96.816673    82.994591    79.378052    -3.161248    0.943463    -98.541206    0.598560    -0.439775    -0.161308    -1.479543    9.240222    0.064411    -6.990585    6.497797    28.493109    3.034946    -12.090513    28.063824    -1.129707    9.003182    11.157357    -54.870186    38.253929    -25.596645    3.784660    2.445287    -20.162350    -1.031473    3.163863    -5.151827    -3.489439    7.710886    -3.759421    50.555256    38.106335    29.372702    -1.301823    -2.645297    24.934473    -10.607362    -2.985402    6.760479    8.083560    -3.588202    4.803448    -1.006696    22.523161    11.178598    -8.636250    -10.828017    16.470947    -2.782444    -2.657089    2.255704    1.912202    3.700435    7.331418    -6.388155    9.667263    -5.170251    6.821197    -13.419311    3.446862    -2.975554    3.217500    3.124779    
96.802116    82.982788    79.437347    -3.062174    0.984388    -97.802994    0.614159    -0.640786    -0.389899    -1.214682    9.266932    -0.032590    -7.020609    6.416792    28.517082    2.939715    -12.036282    28.087194    -1.142013    8.926735    11.084384    -54.974030    38.170135    -25.478548    3.481283    1.862266    -19.869812    -1.429192    2.531253    -4.775346    -3.473647    7.694848    -3.753551    50.812225    38.203587    29.179459    -1.247114    -2.606297    24.517006    -10.646840    -2.971195    6.820217    8.098889    -3.476720    4.677490    -1.010095    21.843185    10.867282    -8.004564    -11.114890    16.230350    -2.349795    -2.279378    1.794393    2.053939    3.671031    7.076660    -6.463988    9.729398    -5.590576    6.876170    -13.514714    3.397991    -2.972772    3.238220    3.082011    
96.775040    82.928558    79.532829    -3.038585    0.800884    -97.034813    0.424091    -0.772157    -0.633268    -0.969336    9.248934    -0.133519    -7.056517    6.319193    28.578701    2.849832    -11.908436    28.147573    -1.137148    8.879369    10.984164    -55.008430    38.175087    -25.396666    3.244025    1.309156    -19.663315    -2.185797    1.955153    -4.400137    -3.484755    7.652412    -3.703513    51.125935    38.366592    28.895567    -1.213868    -2.533823    24.116343    -10.596079    -2.913199    6.883749    7.616096    -3.209311    4.419522    -0.498211    20.883396    10.293512    -7.922354    -11.026148    16.238035    -2.258022    -2.071962    1.991406    1.867324    3.690058    6.640574    -6.416238    9.800851    -5.897740    7.621227    -13.733644    3.402770    -3.107142    3.820621    2.480857    
96.783104    82.918259    79.614723    -2.917803    0.751161    -96.262398    0.033484    -0.929705    -0.776407    -0.232913    9.261929    -0.239697    -7.029162    6.111478    28.545141    2.586184    -11.684937    28.128168    -1.073725    8.828218    10.866685    -55.078224    38.438293    -25.551552    3.141541    0.832589    -19.442890    -2.785605    1.471423    -4.137487    -3.755745    8.090495    -3.661237    51.276825    38.198334    28.960211    -1.195958    -2.458252    23.850189    -10.610831    -2.850774    6.942504    7.302435    -3.125561    4.032981    -0.035806    20.091368    9.974525    -8.153771    -11.002577    16.130800    -2.233985    -1.928446    2.246053    1.960184    3.417392    6.340457    -6.440104    10.239284    -6.351161    7.658415    -14.316045    3.447832    -3.380901    4.316364    2.417224    
96.785675    82.914818    79.689919    -2.827604    0.699713    -95.499191    -0.047495    -1.033649    -0.999082    0.025386    9.190123    -0.334370    -7.053041    6.004001    28.586874    2.477902    -11.550851    28.171700    -1.073981    8.786750    10.802664    -54.858898    38.656719    -25.655592    3.040603    0.361322    -19.363598    -3.845692    1.011732    -3.917063    -3.762743    8.082684    -3.627633    51.468388    38.535164    28.825907    -1.225918    -2.416019    23.394968    -10.521050    -2.814610    7.081246    7.004567    -3.004375    3.578450    0.342241    19.291988    9.774438    -8.132031    -10.836158    15.990469    -2.155643    -1.833346    2.223744    2.117074    3.209679    4.626893    -6.999907    10.475944    -5.317846    7.847424    -14.203751    3.430408    -3.087327    3.903020    2.290891    
96.857475    82.923080    79.803528    -2.591738    0.503833    -94.653610    -0.249336    -1.099666    -1.258922    0.314728    8.934559    -0.442889    -7.141214    5.880157    28.643801    2.406683    -11.424339    28.219936    -1.103791    8.737581    10.717044    -54.578049    38.955627    -25.820757    2.983093    0.158480    -19.282845    -4.338672    0.804088    -3.660878    -3.739709    8.124461    -3.677950    51.403580    38.992161    28.858959    -1.264227    -2.300622    23.021812    -10.211877    -2.715555    7.518870    6.327361    -3.015297    2.863473    1.097175    18.269186    9.125645    -7.993738    -10.416527    16.481867    -2.100291    -1.784791    2.165832    1.999969    2.835383    4.302784    -7.051040    10.800880    -5.732156    7.952355    -14.325050    3.378615    -3.059994    3.911782    2.201465    
96.842804    82.937637    79.860664    -2.581136    0.400572    -93.950226    -0.501230    -1.197203    -1.401537    0.703536    8.951503    -0.519672    -7.191664    5.803049    28.646957    2.249810    -11.320259    28.218752    -1.097360    8.676555    10.635910    -54.323444    39.218590    -25.999844    2.996671    0.006503    -19.291632    -5.239803    0.680784    -3.601878    -3.711856    8.191211    -3.734908    51.086166    40.216431    29.276188    -1.858484    -2.699941    22.155939    -9.692548    -2.986932    7.669801    6.286016    -2.980735    2.305419    0.801955    17.884840    9.094830    -7.701736    -10.338336    16.429634    -2.025245    -1.715911    2.094576    1.954826    2.801983    4.142997    -7.050224    11.016133    -6.208587    7.978385    -14.386917    3.320072    -3.023784    3.892920    2.132883    
96.827736    82.961792    79.920975    -2.593001    0.231634    -93.309875    -0.790559    -1.275372    -1.464186    1.042024    8.975412    -0.565753    -7.238506    5.714551    28.623718    2.120651    -11.186097    28.190998    -1.114477    8.635775    10.553191    -53.920685    39.521267    -26.305328    3.063706    0.571295    -19.219391    -4.975242    1.236769    -3.376659    -3.680651    8.256525    -3.798299    51.346664    40.134449    29.020067    -1.483364    -2.351163    22.292810    -9.980699    -2.684803    7.162812    5.739251    -2.648953    1.705709    1.430515    16.914585    8.960246    -7.877579    -9.777840    16.471260    -2.062769    -1.714529    2.211044    1.874104    2.889594    5.555799    -6.866097    11.210867    -8.194634    8.107835    -14.317890    3.377123    -2.957395    3.946183    1.862994    
96.829430    82.996140    79.977173    -2.571282    0.026176    -92.655998    -1.346047    -1.419092    -1.417311    1.779211    9.026063    -0.605731    -7.391770    5.792706    28.543432    1.873855    -11.153655    28.078217    -0.872858    7.782057    10.334409    -54.417141    40.404125    -25.777769    3.339976    0.228358    -19.123568    -6.575852    1.005821    -3.737129    -3.673236    8.346296    -3.948444    50.601284    40.844944    29.538050    -1.347736    -1.772602    21.699589    -10.487841    -2.125166    6.650764    5.665638    -2.669763    1.162983    1.025726    16.613333    8.929708    -7.642938    -9.685893    16.444115    -2.042483    -1.664719    2.261977    1.760628    2.819456    5.344720    -6.997633    11.445945    -8.570284    7.242312    -14.416146    3.221950    -2.746470    3.218551    2.484719    
